<svg id="Layer_1" data-name="Layer 1" xmlns="http://www.w3.org/2000/svg" viewBox="0 0 81.13 99.53"><defs><style>.cls-1{fill:none;}.cls-2{fill:#0e0d0d;}.cls-3{fill:#fbfbfb;}</style></defs><path class="cls-1" d="M63.69,35.75c.52.41.69.31.88-.27.63-1.91,1.23-3.83,2-5.67a1.45,1.45,0,0,1,1.53-1c1.09.11,1.58,1.07,1.17,2.21-.75,2-1.48,4.06-2.25,6.19,3.4.49,6-1.07,6.93-4a11.62,11.62,0,0,0,.45-2.93A20.46,20.46,0,0,0,71.74,20c-.21-.41-.4-.44-.78-.23a27.41,27.41,0,0,0-3.83,2.55,14.73,14.73,0,0,0-5.27,7.26A5.81,5.81,0,0,0,63.69,35.75Z" transform="translate(-22.33 -4.88)"/><path class="cls-1" d="M79.38,50.24a39.5,39.5,0,0,1,7.05-3.64,1.23,1.23,0,0,1,1.34.19,1.44,1.44,0,0,1-.29,2.51c-1.48.64-2.77,1.58-4.38,2.36l.87.4c1,.5,1.31,1.14.93,2s-1.14,1.12-2.18.67c-.73-.31-1.47-.62-2.17-1a1,1,0,0,0-1.14.08c-1.25.84-2.45,1.74-3.65,2.66-.53.41-.38.65,0,1a9.81,9.81,0,0,0,4.92,2.62,5.72,5.72,0,0,0,4.54-.63,26.32,26.32,0,0,0,4.86-3.9c3.29-3.57,5.07-7.91,6.48-12.46.17-.52,0-.62-.52-.73a32.49,32.49,0,0,0-9.52-.91,19,19,0,0,0-9.75,3.07,7.82,7.82,0,0,0-2.93,9.74A54.43,54.43,0,0,1,79.38,50.24Z" transform="translate(-22.33 -4.88)"/><path class="cls-1" d="M61.93,38.07a.63.63,0,0,1-.22-.18c-.32-.36-.51-.3-.76.11a15.2,15.2,0,0,1-2.47,3.06.71.71,0,0,0-.19,1,50.47,50.47,0,0,1,2.82,7.43,6.6,6.6,0,0,0,.24-.82A51.32,51.32,0,0,1,63,41.07C63.36,39.71,63.49,38.67,61.93,38.07Z" transform="translate(-22.33 -4.88)"/><path class="cls-2" d="M101.88,101.51h-5c-.73,0-1.68.23-2.14-.13s-.11-1.37-.16-2.09c0-.07,0-.13,0-.2a8.64,8.64,0,0,0-6-8.27,11.76,11.76,0,0,0-4.09-.4c-.69,0-.85-.18-.83-.84a7.57,7.57,0,0,0-.7-3.45A8.41,8.41,0,0,0,75,81c-3.2-.06-6.41,0-9.61,0-.63,0-.8-.14-.77-.79a36.89,36.89,0,0,1,.61-5.24A30.44,30.44,0,0,1,72.58,59.5c.43-.47.62-.47,1.07,0a10.63,10.63,0,0,0,10.49,3.16c3.5-.78,6.15-2.92,8.46-5.51,3.84-4.28,5.85-9.46,7.2-14.94.33-1.34-.08-1.88-1.49-2.28A36.35,36.35,0,0,0,85.78,38.6a21.72,21.72,0,0,0-9.57,2.82,11.21,11.21,0,0,0-5,14.37A1,1,0,0,1,70.91,57a31.22,31.22,0,0,0-5.42,7.53c-.48.92-.89,1.88-1.45,3.06-.17-3.06-.81-5.83-.74-8.64A78.19,78.19,0,0,1,66,40.79c.16-.63.45-.8,1.06-.65A7.08,7.08,0,0,0,70.4,40c4.21-1,6.65-4.31,6.94-9a22.53,22.53,0,0,0-3.87-13.78c-.7-1.1-1.31-1.26-2.51-.7a25.6,25.6,0,0,0-8.06,5.8c-.19.2-.32.49-.7.54a22.74,22.74,0,0,0-7.88-9.65c-6-4.49-13.07-6.52-20.39-7.72a35.63,35.63,0,0,1-4.11-.57H26.36c-.26.47-.7.81-.78,1.42a62.41,62.41,0,0,0-.4,8.64c0,1.08.54,1.66,1.43,1.66s1.49-.62,1.47-1.73q0-3.12.19-6.25c0-.56.18-.75.79-.72a43.45,43.45,0,0,1,5.34.63c6.18,1.1,12.12,2.81,17.35,6.53,3.65,2.61,6.67,5.67,8.19,10a1.9,1.9,0,0,1-.08,1.61,9.66,9.66,0,0,0-.67,7.8.79.79,0,0,1,0,.73,13.44,13.44,0,0,1-2.56,3.54A80.71,80.71,0,0,0,51.41,31a1.49,1.49,0,0,1-.23-1.18c.15-1.3.32-2.61.48-3.91.06-.51.11-1,.17-1.53A1.47,1.47,0,1,0,48.92,24c-.17,1.13-.27,2.26-.42,3.58-.48-.52-.82-.89-1.17-1.25L43.6,22.39A1.34,1.34,0,0,0,42,22.05a1.48,1.48,0,0,0-.93,1.25,1.7,1.7,0,0,0,.69,1.4,86.73,86.73,0,0,1,7.28,8.16c1.68,2.3,3.4,4.57,4.85,7,.39.66.37,1-.33,1.39a13.06,13.06,0,0,1-16.82-2A28.87,28.87,0,0,1,30.2,27.82c-.57-1.7-.94-3.45-1.35-5.19a1.31,1.31,0,0,0-1.77-1A1.34,1.34,0,0,0,26,23.21a8.39,8.39,0,0,0,.18.84c1.34,6.14,3.54,11.88,7.86,16.6,4.14,4.53,9.17,6.6,15.33,5.4a17.72,17.72,0,0,0,6.32-2.66A51.52,51.52,0,0,1,59.8,56.93a135.25,135.25,0,0,1,1.78,23.26c0,.67-.21.78-.81.77-3.17,0-6.34,0-9.51,0-4.93,0-8.23,2.78-9.07,7.61-.11.61.27,1.45-.28,1.77s-1.25.06-1.89.07a8.63,8.63,0,0,0-8.37,6,12.68,12.68,0,0,0-.41,4.38c0,.59-.14.75-.74.74-2.24,0-4.48,0-6.73,0a1.32,1.32,0,0,0-1.4,1.18,1.4,1.4,0,0,0,.79,1.6,2.17,2.17,0,0,0,1.13.11H72.75c.16,0,.32,0,.48,0a1.44,1.44,0,0,0,0-2.88h-.77q-18.64,0-37.3,0c-.72,0-1-.12-1-.92.08-.63,0-1.28,0-1.92a5.48,5.48,0,0,1,5.3-5.28c1.25,0,2.5,0,3.75,0S45,92.84,45,91.62c0-.61,0-1.22,0-1.83a6.07,6.07,0,0,1,1.82-4.39A5.19,5.19,0,0,1,50.42,84q12.51,0,25,0a2.55,2.55,0,0,1,.39,0,5.27,5.27,0,0,1,4.41,3.35,10.79,10.79,0,0,1,.55,4.25c0,1.28.51,1.79,1.81,1.81s2.43,0,3.65,0a5.5,5.5,0,0,1,5.16,4,16.32,16.32,0,0,1,.22,3.34c.06.66-.2.78-.8.78-3,0-5.9,0-8.85,0-1.07,0-1.59.51-1.57,1.48s.54,1.4,1.56,1.4q10,0,19.9,0a1.45,1.45,0,1,0,0-2.88Zm-25.11-57a19,19,0,0,1,9.75-3.07,32.49,32.49,0,0,1,9.52.91c.47.11.69.21.52.73-1.41,4.55-3.19,8.89-6.48,12.46a26.32,26.32,0,0,1-4.86,3.9,5.72,5.72,0,0,1-4.54.63,9.81,9.81,0,0,1-4.92-2.62c-.38-.36-.53-.6,0-1,1.2-.92,2.4-1.82,3.65-2.66a1,1,0,0,1,1.14-.08c.7.37,1.44.68,2.17,1,1,.45,1.78.21,2.18-.67s.08-1.49-.93-2l-.87-.4c1.61-.78,2.9-1.72,4.38-2.36a1.44,1.44,0,0,0,.29-2.51,1.23,1.23,0,0,0-1.34-.19,39.5,39.5,0,0,0-7.05,3.64,54.43,54.43,0,0,0-5.54,4A7.82,7.82,0,0,1,76.77,44.54ZM61.86,29.6a14.73,14.73,0,0,1,5.27-7.26A27.41,27.41,0,0,1,71,19.79c.38-.21.57-.18.78.23a20.46,20.46,0,0,1,2.7,10.16A11.62,11.62,0,0,1,74,33.11c-.89,3-3.53,4.54-6.93,4C67.83,35,68.56,33,69.31,31c.41-1.14-.08-2.1-1.17-2.21a1.45,1.45,0,0,0-1.53,1c-.81,1.84-1.41,3.76-2,5.67-.19.58-.36.68-.88.27A5.81,5.81,0,0,1,61.86,29.6ZM63,41.07a51.32,51.32,0,0,0-1.6,7.58,6.6,6.6,0,0,1-.24.82A50.47,50.47,0,0,0,58.29,42a.71.71,0,0,1,.19-1A15.2,15.2,0,0,0,61,38c.25-.41.44-.47.76-.11a.63.63,0,0,0,.22.18C63.49,38.67,63.36,39.71,63,41.07Z" transform="translate(-22.33 -4.88)"/><path class="cls-2" d="M51,89.44a1.47,1.47,0,0,0,1.4,1.44,1.44,1.44,0,0,0,1.45-1.47,1.42,1.42,0,0,0-1.43-1.48A1.46,1.46,0,0,0,51,89.44Z" transform="translate(-22.33 -4.88)"/><path class="cls-2" d="M61.63,94.17A1.47,1.47,0,0,0,63,95.69a1.4,1.4,0,0,0,1.4-1.5A1.35,1.35,0,0,0,63,92.74,1.44,1.44,0,0,0,61.63,94.17Z" transform="translate(-22.33 -4.88)"/><path class="cls-2" d="M38.49,97.87a1.42,1.42,0,0,0,1.4,1.51,1.46,1.46,0,0,0,1.45-1.48,1.41,1.41,0,0,0-1.47-1.43A1.36,1.36,0,0,0,38.49,97.87Z" transform="translate(-22.33 -4.88)"/><path class="cls-2" d="M88.33,97.88a1.32,1.32,0,0,0-1.45-1.41,1.31,1.31,0,0,0-1.33,1.43,1.39,1.39,0,1,0,2.78,0Z" transform="translate(-22.33 -4.88)"/><path class="cls-3" d="M83.1,51.66c1.61-.78,2.9-1.72,4.38-2.36a1.44,1.44,0,0,0,.29-2.51,1.23,1.23,0,0,0-1.34-.19,39.5,39.5,0,0,0-7.05,3.64,54.43,54.43,0,0,0-5.54,4,7.82,7.82,0,0,1,2.93-9.74,19,19,0,0,1,9.75-3.07,32.49,32.49,0,0,1,9.52.91c.47.11.69.21.52.73-1.41,4.55-3.19,8.89-6.48,12.46a26.32,26.32,0,0,1-4.86,3.9,5.72,5.72,0,0,1-4.54.63,9.81,9.81,0,0,1-4.92-2.62c-.38-.36-.53-.6,0-1,1.2-.92,2.4-1.82,3.65-2.66a1,1,0,0,1,1.14-.08c.7.37,1.44.68,2.17,1,1,.45,1.78.21,2.18-.67s.08-1.49-.93-2Z" transform="translate(-22.33 -4.88)"/><path class="cls-3" d="M67.06,37.16C67.83,35,68.56,33,69.31,31c.41-1.14-.08-2.1-1.17-2.21a1.45,1.45,0,0,0-1.53,1c-.81,1.84-1.41,3.76-2,5.67-.19.58-.36.68-.88.27a5.81,5.81,0,0,1-1.83-6.15,14.73,14.73,0,0,1,5.27-7.26A27.41,27.41,0,0,1,71,19.79c.38-.21.57-.18.78.23a20.46,20.46,0,0,1,2.7,10.16A11.62,11.62,0,0,1,74,33.11C73.1,36.09,70.46,37.65,67.06,37.16Z" transform="translate(-22.33 -4.88)"/><path class="cls-3" d="M61.11,49.47A50.47,50.47,0,0,0,58.29,42a.71.71,0,0,1,.19-1A15.2,15.2,0,0,0,61,38c.25-.41.44-.47.76-.11a.63.63,0,0,0,.22.18c1.56.6,1.43,1.64,1,3a51.32,51.32,0,0,0-1.6,7.58A6.6,6.6,0,0,1,61.11,49.47Z" transform="translate(-22.33 -4.88)"/></svg>